# xmcd CD database file
#
# Track frame offsets:
#	150
#	10365
#	20807
#	35588
#	49283
#	65698
#	75606
#	88258
#	99856
#	113998
#	126873
#	136051
#	147828
#	158404
#	172514
#	186814
#	198732
#	211472
#	221219
#	235449
#
# Disc length: 3349 seconds
#
# Revision: 5
# Processed by: cddbd v1.5.2PL0 Copyright (c) Steve Scherf et al.
# Submitted via: CDex 1.70beta2
#
DISCID=200d1314
DTITLE=Charley Pride - The Essential Charley Pride  [RCA]
DYEAR=1997
DGENRE=Country
TTITLE0=Just Between You And Me
TTITLE1=Does My Ring Hurt Your Finger
TTITLE2=Please Help Me I'm Falling
TTITLE3=All I Have To Offer You (Is Me)
TTITLE4=Kaw-Liga
TTITLE5=Is Anybody Goin' To San Antone
TTITLE6=I'd Rather Love You
TTITLE7=Wonder Could I Live There Anymore
TTITLE8=I Can't Believe That You've Stopped Loving Me
TTITLE9=She's Too Good To Be True
TTITLE10=Kiss An Angel Good Mornin'
TTITLE11=It's Gonna Take A Little Bit Longer
TTITLE12=I'm Just Me
TTITLE13=A Shoulder To Cry On
TTITLE14=Amazing Love
TTITLE15=My Eyes Can Only See As Far As You
TTITLE16=I'll Be Leaving Alone
TTITLE17=Someone Loves You Honey
TTITLE18=Burgers And Fries
TTITLE19=You're My Jamaica
EXTD=YEAR: 1997
EXTT0=
EXTT1=
EXTT2=
EXTT3=
EXTT4=
EXTT5=
EXTT6=
EXTT7=
EXTT8=
EXTT9=
EXTT10=
EXTT11=
EXTT12=
EXTT13=
EXTT14=
EXTT15=
EXTT16=
EXTT17=
EXTT18=
EXTT19=
PLAYORDER=
